<svg xmlns="http://www.w3.org/2000/svg" xmlns:xlink="http://www.w3.org/1999/xlink" id="Layer_1" x="0" y="0" version="1.1" viewBox="0 0 142 140" style="enable-background:new 0 0 142 140" xml:space="preserve"><style type="text/css">.st0{fill:#662c91}</style><g><g><g><ellipse cx="59.7" cy="132.5" class="st0" rx="2.4" ry="2.4"/><ellipse cx="71.3" cy="126.8" class="st0" rx="3.2" ry="3.2"/><ellipse cx="79.1" cy="119.1" class="st0" rx="4" ry="4"/><ellipse cx="84.7" cy="107.9" class="st0" rx="5.7" ry="5.7"/></g><g><ellipse cx="81.7" cy="132.7" class="st0" rx="2.4" ry="2.4" transform="matrix(0.9971 -7.617369e-02 7.617369e-02 0.9971 -9.8709 6.6105)"/><ellipse cx="90.7" cy="123.3" class="st0" rx="3.2" ry="3.2"/><ellipse cx="95.4" cy="113.3" class="st0" rx="4" ry="4"/><ellipse cx="96.8" cy="100.9" class="st0" rx="5.7" ry="5.7"/></g><g><ellipse cx="102.5" cy="125.2" class="st0" rx="2.4" ry="2.4"/><ellipse cx="107.7" cy="113.3" class="st0" rx="3.2" ry="3.2"/><ellipse cx="108.8" cy="102.4" class="st0" rx="4" ry="4"/><ellipse cx="105.8" cy="90.2" class="st0" rx="5.7" ry="5.7"/></g><g><ellipse cx="119.5" cy="111.1" class="st0" rx="2.4" ry="2.4"/><ellipse cx="120.3" cy="98.1" class="st0" rx="3.2" ry="3.2"/><ellipse cx="117.5" cy="87.5" class="st0" rx="4" ry="4"/><ellipse cx="110.6" cy="77.1" class="st0" rx="5.7" ry="5.7"/></g><g><ellipse cx="130.6" cy="92" class="st0" rx="2.4" ry="2.4"/><ellipse cx="127" cy="79.5" class="st0" rx="3.2" ry="3.2"/><circle cx="120.7" cy="70.5" r="4" class="st0"/><ellipse cx="110.7" cy="63.1" class="st0" rx="5.7" ry="5.7"/></g><g><ellipse cx="134.6" cy="70.2" class="st0" rx="2.4" ry="2.4" transform="matrix(9.812428e-02 -0.9952 0.9952 9.812428e-02 51.5199 197.2823)"/><ellipse cx="126.9" cy="59.8" class="st0" rx="3.2" ry="3.2"/><ellipse cx="117.9" cy="53.5" class="st0" rx="4" ry="4"/><ellipse cx="105.9" cy="49.9" class="st0" rx="5.7" ry="5.7"/></g><g><ellipse cx="130.8" cy="48.5" class="st0" rx="2.4" ry="2.4"/><ellipse cx="120" cy="41.3" class="st0" rx="3.2" ry="3.2"/><ellipse cx="109.4" cy="38.4" class="st0" rx="4" ry="4"/><ellipse cx="96.9" cy="39.2" class="st0" rx="5.7" ry="5.7"/></g><g><ellipse cx="119.9" cy="29.4" class="st0" rx="2.4" ry="2.4"/><ellipse cx="107.3" cy="26.3" class="st0" rx="3.2" ry="3.2"/><ellipse cx="96.3" cy="27.2" class="st0" rx="4" ry="4"/><ellipse cx="84.9" cy="32.2" class="st0" rx="5.7" ry="5.7"/></g><g><ellipse cx="103" cy="15.1" class="st0" rx="2.4" ry="2.4"/><ellipse cx="90.1" cy="16.5" class="st0" rx="3.2" ry="3.2"/><ellipse cx="80.1" cy="21.1" class="st0" rx="4" ry="4"/><circle cx="71.1" cy="29.7" r="5.7" class="st0"/></g><g><ellipse cx="82.3" cy="7.4" class="st0" rx="2.4" ry="2.4"/><ellipse cx="70.6" cy="13.2" class="st0" rx="3.2" ry="3.2"/><ellipse cx="62.8" cy="20.9" class="st0" rx="4" ry="4"/><ellipse cx="57.3" cy="32.1" class="st0" rx="5.7" ry="5.7"/></g><g><ellipse cx="60.2" cy="7.3" class="st0" rx="2.4" ry="2.4"/><ellipse cx="51.2" cy="16.7" class="st0" rx="3.2" ry="3.2"/><ellipse cx="46.6" cy="26.7" class="st0" rx="4" ry="4"/><ellipse cx="45.2" cy="39.1" class="st0" rx="5.7" ry="5.7"/></g><g><ellipse cx="39.4" cy="14.8" class="st0" rx="2.4" ry="2.4"/><ellipse cx="34.2" cy="26.7" class="st0" rx="3.2" ry="3.2"/><ellipse cx="33.2" cy="37.6" class="st0" rx="4" ry="4"/><ellipse cx="36.2" cy="49.8" class="st0" rx="5.7" ry="5.7"/></g><g><ellipse cx="22.4" cy="28.9" class="st0" rx="2.4" ry="2.4"/><ellipse cx="21.6" cy="41.9" class="st0" rx="3.2" ry="3.2"/><ellipse cx="24.4" cy="52.5" class="st0" rx="4" ry="4"/><ellipse cx="31.3" cy="62.9" class="st0" rx="5.7" ry="5.7"/></g><g><ellipse cx="11.3" cy="48" class="st0" rx="2.4" ry="2.4"/><ellipse cx="15" cy="60.5" class="st0" rx="3.2" ry="3.2"/><circle cx="21.2" cy="69.5" r="4" class="st0"/><ellipse cx="31.3" cy="76.9" class="st0" rx="5.7" ry="5.7"/></g><g><ellipse cx="7.4" cy="69.7" class="st0" rx="2.4" ry="2.4"/><ellipse cx="15.1" cy="80.2" class="st0" rx="3.2" ry="3.2"/><ellipse cx="24.1" cy="86.5" class="st0" rx="4" ry="4"/><ellipse cx="36" cy="90" class="st0" rx="5.7" ry="5.7"/></g><g><ellipse cx="11.1" cy="91.5" class="st0" rx="2.4" ry="2.4"/><ellipse cx="21.9" cy="98.7" class="st0" rx="3.2" ry="3.2"/><ellipse cx="32.5" cy="101.6" class="st0" rx="4" ry="4"/><ellipse cx="45" cy="100.8" class="st0" rx="5.7" ry="5.7"/></g><g><ellipse cx="22.1" cy="110.6" class="st0" rx="2.4" ry="2.4"/><ellipse cx="34.7" cy="113.7" class="st0" rx="3.2" ry="3.2"/><ellipse cx="45.6" cy="112.8" class="st0" rx="4" ry="4"/><ellipse cx="57.1" cy="107.8" class="st0" rx="5.7" ry="5.7"/></g><g><ellipse cx="38.9" cy="124.9" class="st0" rx="2.4" ry="2.4"/><ellipse cx="51.8" cy="123.5" class="st0" rx="3.2" ry="3.2"/><ellipse cx="61.8" cy="118.9" class="st0" rx="4" ry="4"/><circle cx="70.9" cy="110.3" r="5.7" class="st0"/></g></g></g></svg>